<?xml version="1.0" standalone="no"?>
<!DOCTYPE svg PUBLIC "-//W3C//DTD SVG 20010904//EN"
 "http://www.w3.org/TR/2001/REC-SVG-20010904/DTD/svg10.dtd">
<svg version="1.0" xmlns="http://www.w3.org/2000/svg"
 width="512.000000pt" height="512.000000pt" viewBox="0 0 512.000000 512.000000"
 preserveAspectRatio="xMidYMid meet">
<metadata>
Created by potrace 1.14, written by Peter Selinger 2001-2017
</metadata>
<g transform="translate(0.000000,512.000000) scale(0.100000,-0.100000)"
fill="#000000" stroke="none">
<path d="M2417 4714 c-1 -1 -49 -5 -107 -8 -124 -8 -139 -9 -339 -42 -155 -26
-329 -67 -451 -107 -36 -12 -67 -22 -70 -22 -39 -10 -318 -130 -390 -168 -337
-178 -612 -414 -788 -678 -122 -182 -205 -393 -231 -584 -11 -88 -12 -284 -1
-350 15 -92 21 -120 26 -137 3 -9 7 -25 9 -35 15 -78 112 -291 179 -396 128
-199 341 -409 571 -562 355 -236 850 -414 1285 -460 30 -3 66 -8 80 -10 94
-16 494 -23 610 -11 25 3 80 8 122 11 l77 6 479 -359 c263 -198 494 -368 513
-378 42 -21 120 -22 170 0 46 19 95 75 108 123 7 24 11 224 11 550 l0 512 37
27 c149 108 202 152 304 254 160 159 265 305 346 481 27 59 74 187 72 199 0 3
5 18 11 34 6 16 13 43 15 60 3 17 9 56 14 86 12 70 12 291 1 350 -4 25 -10 59
-13 75 -9 62 -50 192 -87 277 -250 577 -920 1037 -1740 1197 -127 25 -149 28
-223 36 -32 4 -66 8 -76 10 -62 12 -513 29 -524 19z m448 -178 c17 -3 53 -7
80 -10 55 -6 127 -15 165 -22 14 -2 41 -7 60 -10 66 -11 315 -75 410 -106 371
-121 699 -315 935 -553 274 -276 410 -586 408 -925 -3 -346 -173 -683 -489
-970 -79 -71 -100 -88 -214 -166 l-106 -73 -1 -557 c-1 -584 0 -581 -43 -571
-8 3 -243 175 -522 385 -329 247 -513 379 -525 377 -29 -6 -119 -14 -248 -22
-249 -15 -503 -6 -710 27 -33 5 -77 12 -99 16 -90 14 -273 60 -401 101 -777
249 -1294 760 -1361 1343 -11 88 -6 226 10 319 65 376 318 719 724 985 110 72
365 204 397 205 3 0 18 7 33 15 60 31 357 123 490 151 12 3 30 7 40 9 16 3 87
16 122 22 8 1 42 5 75 9 33 3 66 8 72 10 7 3 57 7 110 11 54 3 100 8 102 10 5
4 450 -5 486 -10z"/>
</g>
</svg>
